<svg width="48" height="48" viewBox="0 0 48 48" fill="none" xmlns="http://www.w3.org/2000/svg">
<path d="M24 0C10.7368 0 0 10.7368 0 24C0 37.2632 10.7368 48 24 48C37.2632 48 48 37.2632 48 24C48 10.7368 37.2632 0 24 0ZM24 45.4737C12.1263 45.4737 2.52632 35.8737 2.52632 24C2.52632 12.1263 12.1263 2.52632 24 2.52632C35.8737 2.52632 45.4737 12.1263 45.4737 24C45.4737 35.8737 35.8737 45.4737 24 45.4737ZM38.4632 15.8526C37.9579 15.3474 37.2 15.3474 36.6947 15.8526L20.5895 32.0211L13.8316 25.2632C13.3263 24.7579 12.5053 24.7579 12.0632 25.2632C11.5579 25.7684 11.5579 26.5895 12.0632 27.0316L19.7053 34.6737C19.9579 34.9263 20.2737 35.0526 20.5895 35.0526C20.9053 35.0526 21.2211 34.9263 21.4737 34.6737L38.4632 17.6211C38.9684 17.1158 38.9684 16.3579 38.4632 15.8526Z" fill="white"/>
</svg>
